<?xml version="1.0" encoding="UTF-8"?>
<svg width="107px" height="135px" viewBox="0 0 107 135" version="1.1" xmlns="http://www.w3.org/2000/svg" xmlns:xlink="http://www.w3.org/1999/xlink">
    <title>shape/compound</title>
    <g id="UI" stroke="none" stroke-width="1" fill="none" fill-rule="evenodd">
        <g id="Desktop-HD" transform="translate(-1070.000000, -263.000000)" fill="#E2E2E2" fill-rule="nonzero">
            <g id="shape/compound" transform="translate(1070.000000, 263.000000)">
                <path d="M73.4600981,56.8555579 C75.9376772,57.9103586 78.2644251,59.2507597 80.3990018,60.8354212 L65.6955787,86.3032739 C62.3818702,92.0427854 55.0427854,94.0092872 49.3032739,90.6955787 L27.6368175,78.1859414 C28.4323761,75.5872965 29.5309063,73.1210403 30.8912202,70.8283604 L53.3032739,83.7673755 C55.1584695,84.8384732 57.5150313,84.2545555 58.6633159,82.4737198 L58.7673755,82.3032739 Z M43.0020037,1.60969886 L86.3032739,26.6096989 C92.0427854,29.9234074 94.0092872,37.2624922 90.6955787,43.0020037 L88.4365003,46.9156084 C86.2447762,45.4094574 83.9269739,44.0735063 81.5021611,42.9268229 L83.7673755,39.0020037 C84.8384732,37.1468081 84.2545555,34.7902463 82.4737198,33.6419617 L82.3032739,33.5379021 L39.0020037,8.53790209 C37.1468081,7.46680439 34.7902463,8.05072212 33.6419617,9.83155775 L33.5379021,10.0020037 L8.53790209,53.3032739 C7.46680439,55.1584695 8.05072212,57.5150313 9.83155775,58.6633159 L10.0020037,58.7673755 L17.0325578,62.8256517 C15.6817802,65.1204422 14.5089616,67.5325412 13.5330722,70.0429785 L6.0020037,65.6955787 C0.262492221,62.3818702 -1.70400964,55.0427854 1.60969886,49.3032739 L26.6096989,6.0020037 C29.9234074,0.262492221 37.2624922,-1.70400964 43.0020037,1.60969886 Z" id="Combined-Shape"></path>
                <path d="M60.1526388,42.1526388 C34.7475403,42.1526388 14.1526388,62.7475403 14.1526388,88.1526388 C14.1526388,113.557737 34.7475403,134.152639 60.1526388,134.152639 C85.5577373,134.152639 106.152639,113.557737 106.152639,88.1526388 C106.152639,62.7475403 85.5577373,42.1526388 60.1526388,42.1526388 Z M60.1526388,50.1526388 C81.1394593,50.1526388 98.1526388,67.1658183 98.1526388,88.1526388 C98.1526388,109.139459 81.1394593,126.152639 60.1526388,126.152639 C39.1658183,126.152639 22.1526388,109.139459 22.1526388,88.1526388 C22.1526388,67.1658183 39.1658183,50.1526388 60.1526388,50.1526388 Z" id="Oval"></path>
            </g>
        </g>
    </g>
</svg>