<?xml version="1.0" encoding="UTF-8"?>
<svg width="40px" height="40px" viewBox="0 0 40 40" version="1.1" xmlns="http://www.w3.org/2000/svg" xmlns:xlink="http://www.w3.org/1999/xlink">
    <title>icon/css</title>
    <defs>
        <filter color-interpolation-filters="auto" id="filter-1">
            <feColorMatrix in="SourceGraphic" type="matrix" values="0 0 0 0 0.274510 0 0 0 0 0.113725 0 0 0 0 0.411765 0 0 0 1.000000 0"></feColorMatrix>
        </filter>
    </defs>
    <g id="Symbols" stroke="none" stroke-width="1" fill="none" fill-rule="evenodd">
        <g id="noun_CSS_3395492-2-Copy" filter="url(#filter-1)">
            <g transform="translate(0.000000, 1.000000)" id="noun_CSS_3395492" fill="#000000" fill-rule="nonzero">
                <g id="Group">
                    <path d="M37.942756,0.000712130779 L7.38617506,0.000712130779 C6.66425367,-0.00622038644 5.99244674,0.369012749 5.61970605,0.987361232 C5.43256667,1.29224091 5.3333666,1.64293462 5.33307145,2.00067652 L5.33307145,16.0004273 L0.666926896,16.0004273 C0.298778256,16.0004273 0.000152901321,16.2988988 0.000152901321,16.6670821 L0.000152901321,36.0000712 C-0.00173609762,36.2010492 0.0138779187,36.4018197 0.0469962619,36.6000605 C0.343498734,38.5545642 2.02320345,39.9993028 3.99988729,40 L20.6646893,40 C21.0328379,40 21.3312814,39.7015285 21.3312814,39.3333452 L21.3312814,36.0000712 L37.9960833,36.0000712 C39.1775714,35.911149 40.0684674,34.8894921 39.9958596,33.7067787 L39.9958596,27.3735581 L38.6626754,27.3735581 L38.6626754,33.7067787 C38.6626754,34.2267695 38.3560431,34.6667616 37.9960833,34.6667616 L21.3312814,34.6667616 L21.3312814,32.6667972 C21.3312814,32.2986139 21.0328379,32.0001424 20.6646893,32.0001424 L12.3256224,32.0001424 L12.6322547,31.6934812 L16.4051659,27.9202151 L20.1714111,24.1469489 C20.4211523,23.8885558 20.4211523,23.4786919 20.1714111,23.2202987 L20.1714111,23.2202987 L20.1314156,23.1669664 L15.5252643,18.5603817 L15.471937,18.5203824 L15.471937,18.5203824 C15.2135681,18.2706177 14.8037428,18.2706177 14.545374,18.5203824 L10.7724628,22.286982 L7.99943977,25.0136001 L7.99943977,16.6670821 C7.99943977,16.2988988 7.70099633,16.0004273 7.33284769,16.0004273 L6.66625561,16.0004273 L6.66625561,6.66726011 L38.6626754,6.66726011 L38.6626754,23.3336301 L39.9958596,23.3336301 L39.9958596,2.00067652 C39.9960515,1.46088192 39.7780569,0.943930761 39.391412,0.567293183 C39.0047672,0.190655606 38.4823079,-0.013682427 37.942756,0.000712130779 Z M1.33351898,17.3337369 L6.66625561,17.3337369 L6.66625561,21.3336657 L1.33351898,21.3336657 L1.33351898,17.3337369 Z M1.33351898,28.0002136 L6.66625561,28.0002136 L6.66625561,32.0001424 L1.33351898,32.0001424 L1.33351898,28.0002136 Z M10.2391892,32.1934723 L8.38606318,34.0467727 L7.99943977,33.6601129 L7.99943977,28.0002136 L11.2190795,31.2201563 L10.2391892,32.1934723 Z M18.7582359,23.673624 L15.9318855,26.5069069 L12.1589743,22.7336407 L14.9919907,19.9070244 L18.7582359,23.673624 Z M11.2190795,23.673624 L14.9853248,27.4402236 L12.1589743,30.26684 L8.3927291,26.5002403 L11.2190795,23.673624 Z M6.66625561,26.6202382 L6.66625561,26.666904 L1.33351898,26.666904 L1.33351898,22.6669753 L6.66625561,22.6669753 L6.66625561,26.6202382 Z M1.36684858,36.3933975 C1.34225601,36.2637822 1.33108713,36.131977 1.33351898,36.0000712 L1.33351898,33.333452 L6.66625561,33.333452 L6.66625561,36.0400705 C6.63397653,37.4195876 5.55469018,38.5466098 4.17798124,38.638399 C2.8012723,38.7301882 1.58194651,37.7564212 1.36684858,36.3933975 Z M6.97955389,38.6666904 C7.12368489,38.5052451 7.25307572,38.3312203 7.36617729,38.1466997 L7.46616611,38.0000356 C7.54295424,37.866358 7.61195053,37.7283525 7.67280965,37.5867096 L7.7528007,37.3800466 C7.80420895,37.236186 7.84651011,37.0892313 7.8794532,36.9400545 C7.90128532,36.8750117 7.91690889,36.8080472 7.92611464,36.740058 C7.94863234,36.6188256 7.9642115,36.4964064 7.97277609,36.3733979 L8.84601171,35.5067467 L8.84601171,35.5067467 L9.31262617,35.0334218 L9.31262617,38.6666904 L6.97955389,38.6666904 Z M19.9980972,38.6666904 L15.9985447,38.6666904 L15.9985447,33.333452 L19.9980972,33.333452 L19.9980972,38.6666904 Z M14.6653606,38.6666904 L10.6658081,38.6666904 L10.6658081,33.6601129 L10.9924382,33.333452 L14.6653606,33.333452 L14.6653606,38.6666904 Z M6.66625561,5.33395051 L6.66625561,2.00067652 C6.66625561,1.88733748 6.69887429,1.7763907 6.7595785,1.68068222 C6.89110738,1.46104693 7.13024025,1.32874822 7.38617506,1.33402173 L37.942756,1.33402173 C38.1285901,1.31910482 38.3121785,1.38269929 38.4489748,1.50937446 C38.5857711,1.63604962 38.663273,1.81422816 38.6626789,2.00067652 L38.6626789,5.33395051 L6.66625561,5.33395051 Z" id="Shape"></path>
                    <rect id="Rectangle" x="7.99943977" y="2.66733132" width="1.33318416" height="1.3333096"></rect>
                    <rect id="Rectangle" x="10.6658081" y="2.66733132" width="1.33318416" height="1.3333096"></rect>
                    <rect id="Rectangle" x="13.3321764" y="2.66733132" width="1.33318416" height="1.3333096"></rect>
                    <rect id="Rectangle" x="3.33329521" y="35.3334164" width="1.33318416" height="1.3333096"></rect>
                    <rect id="Rectangle" x="38.6626754" y="24.6669397" width="1.33318416" height="1.37330888"></rect>
                    <path d="M11.6656962,17.3337369 L13.9987685,17.3337369 L13.9987685,16.0004273 L11.6656962,16.0004273 C11.4816219,16.0004273 11.3324002,15.8511915 11.3324002,15.6670999 L11.3324002,14.707117 C11.334411,14.533635 11.2644173,14.3670825 11.1390885,14.2471252 L9.60592668,12.6671533 L11.1324225,11.16718 C11.2596454,11.0424679 11.3316606,10.8720158 11.3324002,10.6938551 L11.3324002,9.6672067 C11.3324002,9.48311506 11.4816219,9.3338793 11.6656962,9.3338793 L13.9987685,9.3338793 L13.9987685,8.0005697 L11.6656962,8.0005697 C10.7453246,8.0005697 9.99921601,8.7467485 9.99921601,9.6672067 L9.99921601,10.4205266 L8.19941739,12.1938284 C7.94096392,12.4538487 7.94096392,12.8737913 8.19941739,13.1338116 L9.99921601,14.9804454 L9.99921601,15.6471002 C9.99387043,16.0925749 10.1670828,16.5216466 10.4801897,16.8385406 C10.7932967,17.1554346 11.2202314,17.3337369 11.6656962,17.3337369 L11.6656962,17.3337369 Z" id="Path"></path>
                    <path d="M24.6642418,15.6670999 L24.6642418,15.0004451 L26.4773722,13.1538113 C26.7358257,12.893791 26.7358257,12.4738484 26.4773722,12.213828 L24.6642418,10.4205266 L24.6642418,9.6672067 C24.6642418,8.7467485 23.9181332,8.0005697 22.9977616,8.0005697 L20.6646893,8.0005697 L20.6646893,9.3338793 L22.9977616,9.3338793 C23.1818359,9.3338793 23.3310576,9.48311506 23.3310576,9.6672067 L23.3310576,10.7005216 C23.3317971,10.8786824 23.4038124,11.0491345 23.5310352,11.1738465 L25.0575311,12.6671533 L23.5243693,14.2404586 C23.3990404,14.360416 23.3290467,14.5269684 23.3310576,14.7004504 L23.3310576,15.6670999 C23.3310576,15.8511915 23.1818359,16.0004273 22.9977616,16.0004273 L20.6646893,16.0004273 L20.6646893,17.3337369 L22.9977616,17.3337369 C23.9181332,17.3337369 24.6642418,16.5875581 24.6642418,15.6670999 L24.6642418,15.6670999 Z" id="Path"></path>
                    <rect id="Rectangle" x="13.9987685" y="13.3338081" width="1.33318416" height="1.3333096"></rect>
                    <rect id="Rectangle" x="16.6651368" y="13.3338081" width="1.33318416" height="1.3333096"></rect>
                    <rect id="Rectangle" x="19.3315051" y="13.3338081" width="1.33318416" height="1.3333096"></rect>
                    <rect id="Rectangle" x="27.9972022" y="8.0005697" width="1.99977624" height="1.3333096"></rect>
                    <rect id="Rectangle" x="35.329715" y="13.3338081" width="1.99977624" height="1.3333096"></rect>
                    <rect id="Rectangle" x="31.3301625" y="8.0005697" width="5.99932871" height="1.3333096"></rect>
                    <rect id="Rectangle" x="27.9972022" y="13.3338081" width="5.99932871" height="1.3333096"></rect>
                    <rect id="Rectangle" x="27.9972022" y="10.6671889" width="9.33228911" height="1.3333096"></rect>
                    <rect id="Rectangle" x="19.3315051" y="26.666904" width="7.33251287" height="1.3333096"></rect>
                    <rect id="Rectangle" x="33.3299388" y="32.0001424" width="3.99955248" height="1.3333096"></rect>
                    <rect id="Rectangle" x="27.9972022" y="26.666904" width="9.33228911" height="1.3333096"></rect>
                    <rect id="Rectangle" x="22.6644655" y="32.0001424" width="9.33228911" height="1.3333096"></rect>
                    <polygon id="Rectangle" transform="translate(27.328296, 30.001721) rotate(-0.130000) translate(-27.328296, -30.001721) " points="17.3294152 29.3350688 37.3271776 29.3350645 37.3271773 30.6683741 17.3294149 30.6683784"></polygon>
                    <rect id="Rectangle" x="27.9972022" y="16.0004273" width="9.33228911" height="1.3333096"></rect>
                    <path d="M22.6644655,19.3337013 L22.6644655,24.6669397 C22.6644655,25.0351229 22.962909,25.3335944 23.3310576,25.3335944 L36.6628992,25.3335944 C37.0310478,25.3335944 37.3294913,25.0351229 37.3294913,24.6669397 L37.3294913,19.3337013 C37.3294913,18.965518 37.0310478,18.6670465 36.6628992,18.6670465 L23.3310576,18.6670465 C22.962909,18.6670465 22.6644655,18.965518 22.6644655,19.3337013 Z M23.9976497,20.0003561 L35.9963071,20.0003561 L35.9963071,24.0002849 L23.9976497,24.0002849 L23.9976497,20.0003561 Z" id="Shape"></path>
                </g>
            </g>
        </g>
    </g>
</svg>