<?xml version="1.0" encoding="UTF-8"?>
<svg width="40px" height="40px" viewBox="0 0 40 40" version="1.1" xmlns="http://www.w3.org/2000/svg" xmlns:xlink="http://www.w3.org/1999/xlink">
    <title>icon/english</title>
    <defs>
        <filter color-interpolation-filters="auto" id="filter-1">
            <feColorMatrix in="SourceGraphic" type="matrix" values="0 0 0 0 0.274510 0 0 0 0 0.113725 0 0 0 0 0.411765 0 0 0 1.000000 0"></feColorMatrix>
        </filter>
    </defs>
    <g id="Symbols" stroke="none" stroke-width="1" fill="none" fill-rule="evenodd">
        <g id="noun_english_902379-copy" filter="url(#filter-1)">
            <g id="Group" fill="#000000" fill-rule="nonzero">
                <path d="M35.1111111,0 L4.88888889,0 C2.17777778,0 0,2.04444444 0,4.57777778 L0,27.5555556 C0,30.0888889 2.17777778,32.1333333 4.88888889,32.1333333 L8.08888889,32.1333333 L8.08888889,38.9333333 C8.08888889,39.3333333 8.35555556,39.7333333 8.75555556,39.9111111 C8.93333333,40 9.06666667,40 9.24444444,40 C9.51111111,40 9.77777778,39.9111111 10,39.7777778 L20.0888889,32.1333333 L35.1111111,32.1333333 C37.8222222,32.1333333 40,30.0888889 40,27.5555556 L40,4.57777778 C40,2.04444444 37.8222222,0 35.1111111,0 Z M37.7333333,27.5111111 C37.7333333,28.8444444 36.5777778,29.9111111 35.1555556,29.9111111 L19.6444444,29.9111111 C19.3777778,29.9111111 19.1111111,30 18.8888889,30.1333333 L10.4,36.5777778 L10.4,30.9777778 C10.4,30.4 9.86666667,29.9111111 9.24444444,29.9111111 L4.88888889,29.9111111 C3.46666667,29.9111111 2.31111111,28.8444444 2.31111111,27.5111111 L2.31111111,4.66666667 C2.31111111,3.33333333 3.46666667,2.26666667 4.88888889,2.26666667 L35.2,2.26666667 C36.6222222,2.26666667 37.7777778,3.33333333 37.7777778,4.66666667 L37.7777778,27.5111111 L37.7333333,27.5111111 Z" id="Shape"></path>
                <polygon id="Path" points="9.55555556 16.1777778 13.7777778 16.1777778 13.7777778 14.6666667 9.55555556 14.6666667 9.55555556 12.8 14.1777778 12.8 14.1777778 11.2444444 7.73333333 11.2444444 7.73333333 20 14.4 20 14.4 18.4444444 9.55555556 18.4444444"></polygon>
                <polygon id="Path" points="21.2 17.3333333 17.6888889 11.2444444 15.7777778 11.2444444 15.7777778 20 17.5111111 20 17.5111111 13.7777778 21.0666667 20 22.8888889 20 22.8888889 11.2444444 21.2 11.2444444"></polygon>
                <path d="M28.7111111,16.7555556 L30.7555556,16.7555556 C30.6666667,17.3333333 30.4444444,17.7777778 30.0444444,18.1333333 C29.6444444,18.4888889 29.1555556,18.6666667 28.5333333,18.6666667 C27.9111111,18.6666667 27.3333333,18.4444444 26.8444444,18 C26.3555556,17.5555556 26.0888889,16.8 26.0888889,15.7333333 C26.0888889,14.6666667 26.3111111,13.8666667 26.7555556,13.3333333 C27.2,12.8 27.7777778,12.5333333 28.4888889,12.5333333 C28.8444444,12.5333333 29.2,12.5777778 29.5111111,12.7111111 C30.0444444,12.9333333 30.4,13.3777778 30.5333333,13.9555556 L32.3555556,13.9555556 C32.2666667,13.1111111 31.8666667,12.4 31.2,11.8222222 C30.5333333,11.2444444 29.6444444,10.9777778 28.5333333,10.9777778 C27.2444444,10.9777778 26.2222222,11.4222222 25.4222222,12.2666667 C24.6222222,13.1111111 24.2666667,14.2666667 24.2666667,15.6888889 C24.2666667,17.1111111 24.6666667,18.1777778 25.4222222,19.0222222 C26.1777778,19.8222222 27.1111111,20.2222222 28.2666667,20.2222222 C28.9777778,20.2222222 29.5555556,20.0888889 30.0444444,19.7777778 C30.3111111,19.6 30.6222222,19.3333333 30.9777778,18.8888889 L31.1111111,20 L32.3111111,20 L32.3111111,15.2888889 L28.6666667,15.2888889 L28.6666667,16.7555556 L28.7111111,16.7555556 Z" id="Path"></path>
            </g>
        </g>
    </g>
</svg>