<?xml version="1.0" encoding="UTF-8"?>
<svg width="40px" height="40px" viewBox="0 0 40 40" version="1.1" xmlns="http://www.w3.org/2000/svg" xmlns:xlink="http://www.w3.org/1999/xlink">
    <title>icon/git</title>
    <defs>
        <filter color-interpolation-filters="auto" id="filter-1">
            <feColorMatrix in="SourceGraphic" type="matrix" values="0 0 0 0 0.274510 0 0 0 0 0.113725 0 0 0 0 0.411765 0 0 0 1.000000 0"></feColorMatrix>
        </filter>
    </defs>
    <g id="Symbols" stroke="none" stroke-width="1" fill="none" fill-rule="evenodd">
        <g id="code" filter="url(#filter-1)">
            <g transform="translate(3.000000, 0.000000)">
                <path d="M34,8.57142857 C34,5.42 31.4585,2.85714286 28.3333333,2.85714286 C25.2081667,2.85714286 22.6666667,5.42 22.6666667,8.57142857 C22.6666667,10.6771429 23.8141667,12.5 25.5,13.4914286 L25.5,14.2857143 C25.5,15.86 24.2306667,17.1428571 22.6666667,17.1428571 L15.5833333,17.1428571 C12.9625,17.1428571 10.5286667,17.9485714 8.5,19.32 L8.5,10.6342857 C10.1858333,9.64285714 11.3333333,7.82 11.3333333,5.71428571 C11.3333333,2.56285714 8.79183333,0 5.66666667,0 C2.5415,0 0,2.56285714 0,5.71428571 C0,7.82 1.1475,9.64285714 2.83333333,10.6342857 L2.83333333,29.3657143 C1.1475,30.3571429 0,32.18 0,34.2857143 C0,37.4371429 2.5415,40 5.66666667,40 C8.79183333,40 11.3333333,37.4371429 11.3333333,34.2857143 C11.3333333,32.2057143 10.2141667,30.4 8.5595,29.4 C8.86833333,25.7457143 11.883,22.8571429 15.5833333,22.8571429 L22.6666667,22.8571429 C27.353,22.8571429 31.1666667,19.0114286 31.1666667,14.2857143 L31.1666667,13.4914286 C32.8525,12.5 34,10.6771429 34,8.57142857 Z M5.66666667,2.85714286 C7.22783333,2.85714286 8.5,4.14 8.5,5.71428571 C8.5,7.28857143 7.22783333,8.57142857 5.66666667,8.57142857 C4.1055,8.57142857 2.83333333,7.28857143 2.83333333,5.71428571 C2.83333333,4.14 4.1055,2.85714286 5.66666667,2.85714286 Z M5.66666667,37.1428571 C4.1055,37.1428571 2.83333333,35.8628571 2.83333333,34.2857143 C2.83333333,32.7085714 4.1055,31.4285714 5.66666667,31.4285714 C7.22783333,31.4285714 8.5,32.7085714 8.5,34.2857143 C8.5,35.8628571 7.22783333,37.1428571 5.66666667,37.1428571 Z M28.3333333,11.4285714 C26.7693333,11.4285714 25.5,10.1457143 25.5,8.57142857 C25.5,6.99714286 26.7693333,5.71428571 28.3333333,5.71428571 C29.8973333,5.71428571 31.1666667,6.99714286 31.1666667,8.57142857 C31.1666667,10.1457143 29.8973333,11.4285714 28.3333333,11.4285714 Z" id="Shape" fill="#000000" fill-rule="nonzero"></path>
            </g>
        </g>
    </g>
</svg>