<?xml version="1.0" encoding="UTF-8"?>
<svg width="40px" height="40px" viewBox="0 0 40 40" version="1.1" xmlns="http://www.w3.org/2000/svg" xmlns:xlink="http://www.w3.org/1999/xlink">
    <title>icon/html</title>
    <defs>
        <filter color-interpolation-filters="auto" id="filter-1">
            <feColorMatrix in="SourceGraphic" type="matrix" values="0 0 0 0 0.274510 0 0 0 0 0.113725 0 0 0 0 0.411765 0 0 0 1.000000 0"></feColorMatrix>
        </filter>
    </defs>
    <g id="Symbols" stroke="none" stroke-width="1" fill="none" fill-rule="evenodd">
        <g id="noun_html_3323598-copy" filter="url(#filter-1)">
            <g transform="translate(0.000000, 1.000000)">
                <path d="M39.8185612,11.9615689 C39.7952218,11.9167246 39.7646222,11.8760298 39.7279958,11.8411252 C39.7121433,11.8129013 39.6917456,11.7874695 39.6676189,11.7658479 L28.8978906,0.353803487 C28.6841173,0.128063228 28.3865758,0 28.0752554,0 L10.4904852,0 C9.86526202,0 9.35841847,0.50554218 9.35841847,1.12916006 L9.35841847,16.1770998 L1.13206675,16.1770998 C0.506843548,16.1770998 0,16.682642 0,17.3062599 L0,30.8411252 C0,31.4647431 0.506843548,31.9702853 1.13206675,31.9702853 L9.35841847,31.9702853 L9.35841847,36.8708399 C9.35841847,37.4944578 9.86526202,38 10.4904852,38 L38.8676251,38 C39.4928483,38 39.9998524,37.4944578 39.9998524,36.8708399 L39.9998524,12.5637876 C40.0034795,12.3491573 39.9401726,12.1386761 39.8185612,11.9615689 Z M12.2263209,22.4025357 C11.6010977,22.4025357 11.0942542,21.8969935 11.0942542,21.2733756 C11.0942542,20.6497577 11.6010977,20.1442155 12.2263209,20.1442155 L15.8036518,20.1442155 C16.428875,20.1442155 16.9357186,20.6497577 16.9357186,21.2733756 C16.9357186,21.8969935 16.428875,22.4025357 15.8036518,22.4025357 L15.1470531,22.4025357 L15.1470531,26.8740095 C15.1470531,27.4976274 14.6402096,28.0031696 14.0149864,28.0031696 C13.3897632,28.0031696 12.8829196,27.4976274 12.8829196,26.8740095 L12.8829196,22.4025357 L12.2263209,22.4025357 Z M3.77355584,21.2733756 C3.77355584,20.6497577 4.28039938,20.1442155 4.90562259,20.1442155 C5.53084579,20.1442155 6.03768934,20.6497577 6.03768934,21.2733756 L6.03768934,22.9445325 L7.29050987,22.9445325 L7.29050987,21.2733756 C7.29050987,20.6497577 7.79735342,20.1442155 8.42257662,20.1442155 C9.04779983,20.1442155 9.55464337,20.6497577 9.55464337,21.2733756 L9.55464337,26.8740095 C9.55464337,27.4976274 9.04779983,28.0031696 8.42257662,28.0031696 C7.79735342,28.0031696 7.29050987,27.4976274 7.29050987,26.8740095 L7.29050987,25.2028526 L6.03768934,25.2028526 L6.03768934,26.8740095 C6.03768934,27.4976274 5.53084579,28.0031696 4.90562259,28.0031696 C4.28039938,28.0031696 3.77355584,27.4976274 3.77355584,26.8740095 L3.77355584,21.2733756 Z M37.7355584,35.7416799 L11.622552,35.7416799 L11.622552,31.9702853 L34.3393581,31.9702853 C34.9645813,31.9702853 35.4714249,31.4647431 35.4714249,30.8411252 L35.4714249,17.3062599 C35.4714249,16.682642 34.9645813,16.1770998 34.3393581,16.1770998 L11.622552,16.1770998 L11.622552,2.25832013 L26.9431887,2.25832013 L26.9431887,12.5637876 C26.9431887,13.1874055 27.4500322,13.6929477 28.0752554,13.6929477 L37.7355584,13.6929477 L37.7355584,35.7416799 Z M22.6564292,25.0974643 L22.641335,25.1125198 C22.5813175,25.1924572 22.510159,25.263433 22.4300159,25.3232964 C22.4167848,25.3358744 22.4014625,25.346063 22.3847332,25.3534073 C22.3390094,25.3905636 22.2881774,25.4209844 22.233791,25.4437401 L22.2262439,25.4437401 C22.1623741,25.4786326 22.0937198,25.5039948 22.0224719,25.5190174 C22.0082118,25.5251483 21.9926719,25.5277317 21.9771892,25.5265452 C21.8238135,25.5667016 21.6626439,25.5667016 21.5092683,25.5265452 C21.4938454,25.5315368 21.4769518,25.5287284 21.4639856,25.5190174 C21.3927377,25.5039948 21.3240833,25.4786326 21.2602136,25.4437401 L21.2526665,25.4437401 C21.19828,25.4209844 21.1474481,25.3905636 21.1017242,25.3534073 C21.0849949,25.346063 21.0696727,25.3358744 21.0564416,25.3232964 C20.9762984,25.263433 20.9051399,25.1924572 20.8451224,25.1125198 L20.8300282,25.0974643 L20.4677668,24.6232171 L20.4677668,26.8740095 C20.4677668,27.4976274 19.9609233,28.0031696 19.3357001,28.0031696 C18.7104769,28.0031696 18.2036333,27.4976274 18.2036333,26.8740095 L18.2036333,21.2733756 C18.205152,20.7896877 18.5143731,20.3603086 18.9734387,20.2044374 C19.4349441,20.0518686 19.9427646,20.2056326 20.2413535,20.5883518 L21.7432287,22.5606181 L23.2451039,20.5883518 C23.5382969,20.1984012 24.0492628,20.0401177 24.5123476,20.1957937 C24.9754324,20.3514696 25.2860966,20.785962 25.2828497,21.2733756 L25.2828497,26.8740095 C25.2828497,27.4976274 24.7759805,28.0031696 24.1507573,28.0031696 C23.5255341,28.0031696 23.0186906,27.4976274 23.0186906,26.8740095 L23.0186906,24.6232171 L22.6564292,25.0974643 Z M30.5658023,25.7448494 C31.1910255,25.7448494 31.697869,26.2503916 31.697869,26.8740095 C31.697869,27.4976274 31.1910255,28.0031696 30.5658023,28.0031696 L27.6224287,28.0031696 C26.9972055,28.0031696 26.490362,27.4976274 26.490362,26.8740095 L26.490362,21.2733756 C26.490362,20.6497577 26.9972055,20.1442155 27.6224287,20.1442155 C28.2476519,20.1442155 28.7544955,20.6497577 28.7544955,21.2733756 L28.7544955,25.7448494 L30.5658023,25.7448494 Z" id="Shape" fill="#461D69" fill-rule="nonzero"></path>
            </g>
        </g>
    </g>
</svg>