<?xml version="1.0" encoding="UTF-8"?>
<svg width="40px" height="40px" viewBox="0 0 40 40" version="1.1" xmlns="http://www.w3.org/2000/svg" xmlns:xlink="http://www.w3.org/1999/xlink">
    <title>icon/js</title>
    <defs>
        <filter color-interpolation-filters="auto" id="filter-1">
            <feColorMatrix in="SourceGraphic" type="matrix" values="0 0 0 0 0.274510 0 0 0 0 0.113725 0 0 0 0 0.411765 0 0 0 1.000000 0"></feColorMatrix>
        </filter>
    </defs>
    <g id="Symbols" stroke="none" stroke-width="1" fill="none" fill-rule="evenodd">
        <g id="noun_web-development_3302915-copy" filter="url(#filter-1)">
            <g id="Group" fill="#000000" fill-rule="nonzero">
                <g id="Shape">
                    <path d="M6.666666,0 L33.333334,0 C37.015232,0 40,2.984768 40,6.666666 L40,33.333334 C40,37.015232 37.015232,40 33.333334,40 L6.666666,40 C2.984768,40 0,37.015232 0,33.333334 L0,6.666666 C0,2.984768 2.984768,0 6.666666,0 Z M27.5,3.454546 C26.671572,3.454546 26,4.126118 26,4.954546 C26,5.782972 26.671572,6.454546 27.5,6.454546 C28.328428,6.454546 29,5.782972 29,4.954546 C29,4.126118 28.328428,3.454546 27.5,3.454546 Z M32.388888,3.454546 C31.560462,3.454546 30.888888,4.126118 30.888888,4.954546 C30.888888,5.782972 31.560462,6.454546 32.388888,6.454546 C33.217316,6.454546 33.888888,5.782972 33.888888,4.954546 C33.888888,4.126118 33.217316,3.454546 32.388888,3.454546 Z M3.244444,33.922424 C3.244444,35.244402 4.316118,36.316076 5.638096,36.316076 L34.361904,36.316076 C35.683882,36.316076 36.755556,35.244402 36.755556,33.922424 L36.755556,8.941414 L3.244444,8.941414 L3.244444,33.922424 Z M15.136776,23.232506 L15.024808,22.703692 C14.940084,22.305362 15.075886,21.888982 15.378454,21.616548 C15.526808,21.482968 15.709372,21.389726 15.904832,21.348578 L16.09526,21.307716 C16.160506,20.894332 16.289196,20.496016 16.479678,20.12385 L16.349268,19.979016 C15.927412,19.510496 15.965914,18.786752 16.433832,18.365436 L16.835506,18.003768 C17.304026,17.581912 18.02777,17.620414 18.449086,18.088332 L18.579496,18.233168 C18.969544,18.082642 19.379718,17.99574 19.79877,17.97412 L19.857086,17.788892 C19.919036,17.598266 20.03025,17.426988 20.178608,17.293408 C20.481176,17.020974 20.909998,16.930024 21.296762,17.055334 L21.810976,17.221966 C22.410302,17.417074 22.739652,18.062334 22.545072,18.662246 L22.485758,18.845188 C22.648184,18.976054 22.800946,19.120948 22.939798,19.27516 C23.078652,19.429372 23.206784,19.596442 23.319956,19.771658 L23.508096,19.731792 C24.123946,19.600928 24.732346,19.995966 24.863224,20.61183 L24.975192,21.140644 C25.059916,21.538974 24.924114,21.955354 24.621546,22.227788 C24.473192,22.361368 24.290628,22.45461 24.095168,22.495758 L23.90474,22.536622 C23.839494,22.950004 23.710804,23.348322 23.520322,23.720486 L23.650732,23.86532 C24.072588,24.33384 24.034086,25.057584 23.566168,25.4789 L23.164494,25.840568 C22.695974,26.262424 21.97223,26.223924 21.550914,25.756004 L21.420504,25.61117 C21.030456,25.761694 20.620282,25.848598 20.20123,25.870216 L20.142914,26.055444 C20.080964,26.24607 19.96975,26.417348 19.821392,26.55093 C19.518824,26.823364 19.090002,26.914312 18.703238,26.789002 L18.189024,26.62237 C17.589698,26.427262 17.260348,25.782002 17.455456,25.182676 L17.514768,24.999734 C17.352342,24.868868 17.199582,24.723972 17.060728,24.569762 C16.921876,24.41555 16.793742,24.24848 16.680572,24.073264 L16.492432,24.11313 C15.875468,24.243936 15.267596,23.849484 15.136776,23.232506 Z M20.896184,22.91817 C21.446216,22.42292 21.490586,21.576006 20.99535,21.02599 C20.5001,20.47596 19.653186,20.43159 19.10317,20.926826 C18.55314,21.422076 18.508768,22.26899 19.004004,22.819006 C19.499254,23.369036 20.346754,23.41288 20.896184,22.91817 Z M30.10664,22.10586 L30.10664,21.832422 C28.85664,21.715234 28.182812,21.119532 28.182812,19.69375 L28.182812,17.545312 C28.182812,16.129296 27.733594,15.660546 26.210156,15.660546 L26.030274,15.660546 C25.46127,15.660546 25,15.199278 25,14.630274 C25,14.06127 25.46127,13.6 26.030274,13.6 L26.776562,13.6 C29.46211,13.6 30.780468,14.478906 30.780468,17.086328 L30.780468,18.766016 C30.780468,20.07461 31.073438,20.680078 32.342968,20.680078 L32.649024,20.680078 C33.36365,20.680078 33.942968,21.259398 33.942968,21.974024 C33.942968,22.68865 33.36365,23.267968 32.649024,23.267968 L32.342968,23.267968 C31.073438,23.267968 30.780468,23.863672 30.780468,25.182032 L30.780468,27.154688 C30.780468,29.78164 29.46211,30.71914 26.776562,30.71914 L26.030274,30.71914 C25.46127,30.71914 25,30.257872 25,29.688868 C25,29.119862 25.46127,28.658594 26.030274,28.658594 L26.210156,28.658594 C27.733594,28.658594 28.182812,28.189844 28.182812,26.773828 L28.182812,24.420312 C28.182812,22.994532 28.85664,22.223046 30.10664,22.10586 Z M10.036328,22.10586 C11.286328,22.223046 11.960156,22.994532 11.960156,24.420312 L11.960156,26.773828 C11.960156,28.189844 12.409376,28.658594 13.932812,28.658594 L14.112696,28.658594 C14.6817,28.658594 15.142968,29.119862 15.142968,29.688868 C15.142968,30.257872 14.6817,30.71914 14.112696,30.71914 L13.366406,30.71914 C10.68086,30.71914 9.3625,29.78164 9.3625,27.154688 L9.3625,25.182032 C9.3625,23.863672 9.069532,23.267968 7.8,23.267968 L7.493946,23.267968 C6.77932,23.267968 6.2,22.68865 6.2,21.974024 C6.2,21.259398 6.77932,20.680078 7.493946,20.680078 L7.8,20.680078 C9.069532,20.680078 9.3625,20.07461 9.3625,18.766016 L9.3625,17.086328 C9.3625,14.478906 10.68086,13.6 13.366406,13.6 L14.112696,13.6 C14.6817,13.6 15.142968,14.06127 15.142968,14.630274 C15.142968,15.199278 14.6817,15.660546 14.112696,15.660546 L13.932812,15.660546 C12.409376,15.660546 11.960156,16.129296 11.960156,17.545312 L11.960156,19.69375 C11.960156,21.119532 11.286328,21.715234 10.036328,21.832422 L10.036328,22.10586 Z"></path>
                </g>
            </g>
        </g>
    </g>
</svg>